<svg xmlns="http://www.w3.org/2000/svg" viewBox="0 0 126 126" fill="none">
  <path d="M38.25 53.25L63 28.5L87.75 53.25L103.5 37.5L63 0L22.5 37.5L38.25 53.25Z" fill="#F3BA2F"/>
  <path d="M0 63L15.75 47.25L31.5 63L15.75 78.75L0 63Z" fill="#F3BA2F"/>
  <path d="M38.25 72.75L63 97.5L87.75 72.75L103.5 88.5L63 126L22.5 88.5L38.25 72.75Z" fill="#F3BA2F"/>
  <path d="M94.5 63L110.25 47.25L126 63L110.25 78.75L94.5 63Z" fill="#F3BA2F"/>
  <path d="M63 53.25L78.75 37.5L94.5 53.25L78.75 69L63 53.25Z" fill="#F3BA2F"/>
  <path d="M47.25 69L63 53.25L78.75 69L63 84.75L47.25 69Z" fill="#F3BA2F"/>
</svg>