<svg xmlns="http://www.w3.org/2000/svg" viewBox="0 0 126 126" fill="none">
  <path d="M63 0C28.2 0 0 28.2 0 63C0 97.8 28.2 126 63 126C97.8 126 126 97.8 126 63C126 28.2 97.8 0 63 0ZM63 94.5C45.15 94.5 31.5 80.85 31.5 63C31.5 45.15 45.15 31.5 63 31.5C80.85 31.5 94.5 45.15 94.5 63C94.5 80.85 80.85 94.5 63 94.5Z" fill="#000000"/>
  <path d="M63 47.25C53.55 47.25 47.25 53.55 47.25 63C47.25 72.45 53.55 78.75 63 78.75C72.45 78.75 78.75 72.45 78.75 63C78.75 53.55 72.45 47.25 63 47.25Z" fill="#000000"/>
</svg>