<svg xmlns="http://www.w3.org/2000/svg" viewBox="0 0 1000 324.68"><path fill="#00579f" d="M651.17,0c-70.93,0-134.32,36.9-134.32,105.73,0,78.27,114.07,83.33,114.07,122.73,0,16.53-18.7,31.22-50.53,31.22-45.47,0-79.17-20.28-79.17-20.28l-14.31,66.86s39.1,17.14,91.3,17.14c77.32,0,138.45-38.12,138.45-106.95,0-81.86-114.68-87.22-114.68-123.95,0-12.93,15.52-27.01,47.35-27.01,36.07,0,65.58,14.7,65.58,14.7l14.1-65.64S693.71,0,651.17,0"/><path fill="#00579f" d="M217.63,5.42L134.7,319.27h81.66l13.94-40.6h84.98l8.11,40.6h71.86L323.45,5.42h-105.82Zm41.31,82.9l20.03,97.76h-55.1l35.07-97.76Z"/><path fill="#00579f" d="M330.01,319.27h77.04L462.29,5.42h-77.04l-55.24,313.85Z"/><path fill="#00579f" d="M882.13,5.42l-60.55,213.94-23.4-111.44c-5.5-27.01-28.9-51.75-59.94-65.03l54.44,276.38h81.66l95.66-313.85h-87.87Z"/><path fill="#faa61a" d="M131.65,5.42H1.98L0,16.01c101.81,24.63,169.26,84.27,196.88,155.78l-28.29-135.5c-4.89-18.9-19.2-29.49-36.94-30.87"/></svg>